<?xml version="1.0" standalone="no"?>
<!DOCTYPE svg PUBLIC "-//W3C//DTD SVG 20010904//EN"
 "http://www.w3.org/TR/2001/REC-SVG-20010904/DTD/svg10.dtd">
<svg version="1.0" xmlns="http://www.w3.org/2000/svg"
 width="512.000000pt" height="512.000000pt" viewBox="0 0 512.000000 512.000000"
 preserveAspectRatio="xMidYMid meet">
<metadata>
Oxke
</metadata>
<g transform="translate(0.000000,512.000000) scale(0.100000,-0.100000)"
fill="#000000" stroke="none">
<path d="M0 2560 l0 -2560 1173 1 c1012 1 1158 3 1067 14 -456 57 -891 237
-1260 523 -117 91 -316 287 -413 407 -208 258 -367 557 -461 868 -39 127 -81
325 -72 334 3 4 6 -3 6 -15 0 -12 5 -22 11 -22 6 0 9 6 6 14 -3 7 -1 18 4 23
5 5 12 19 14 31 3 12 7 31 10 43 2 12 8 26 13 33 8 10 11 29 15 79 1 9 5 17 8
17 4 0 13 26 19 58 7 31 17 66 23 77 5 11 9 36 9 57 -1 20 3 40 8 43 6 4 8 11
4 16 -3 6 -1 23 5 38 8 19 9 35 2 54 -7 18 -7 28 0 33 7 4 6 10 -1 19 -7 8 -7
15 -1 19 6 4 8 63 5 151 -3 95 -1 145 5 145 6 0 8 9 3 23 -4 12 -7 49 -7 82 0
33 -4 63 -10 67 -5 4 -10 22 -10 40 -2 59 -16 128 -26 128 -5 0 -9 -5 -9 -12
0 -6 -2 -9 -5 -7 -2 3 -2 15 2 28 4 17 8 20 15 9 6 -9 7 -6 3 8 -4 14 12 64
45 140 129 301 291 543 525 783 411 422 937 684 1515 756 91 11 -55 13 -1067
14 l-1173 1 0 -2560z m17 -312 c-3 -8 -6 -5 -6 6 -1 11 2 17 5 13 3 -3 4 -12
1 -19z m10 -75 c-3 -10 -5 -4 -5 12 0 17 2 24 5 18 2 -7 2 -21 0 -30z"/>
<path d="M2880 5105 c456 -57 891 -237 1260 -523 117 -91 316 -287 413 -407
302 -374 493 -823 552 -1295 11 -91 13 55 14 1068 l1 1172 -1172 -1 c-1013 -1
-1159 -3 -1068 -14z"/>
<path d="M2404 4457 c-9 -5 -31 -6 -49 -3 -21 4 -36 2 -40 -5 -4 -6 -19 -9
-36 -5 -15 3 -31 1 -34 -4 -4 -6 -17 -7 -30 -4 -12 3 -26 1 -30 -6 -4 -6 -15
-8 -26 -5 -11 4 -19 2 -19 -5 0 -7 -8 -9 -20 -5 -12 4 -20 2 -20 -5 0 -7 -8
-9 -20 -5 -12 4 -20 2 -20 -5 0 -7 -7 -10 -15 -7 -8 4 -17 2 -20 -3 -3 -5 -12
-7 -20 -3 -8 3 -15 0 -15 -6 0 -6 -7 -8 -15 -5 -8 4 -15 1 -15 -5 0 -6 -7 -8
-15 -5 -8 4 -15 1 -15 -5 0 -6 -7 -8 -15 -5 -8 4 -15 1 -15 -6 0 -6 -4 -8 -10
-5 -5 3 -10 1 -10 -5 0 -7 -7 -10 -15 -6 -8 3 -15 1 -15 -5 0 -6 -4 -7 -10 -4
-5 3 -10 1 -10 -5 0 -7 -7 -10 -15 -6 -8 3 -15 1 -15 -5 0 -6 -4 -7 -10 -4 -5
3 -10 1 -10 -5 0 -6 -4 -8 -10 -5 -5 3 -10 1 -10 -5 0 -6 -4 -9 -9 -5 -6 3
-14 -3 -20 -12 -6 -10 -11 -14 -11 -10 0 4 -19 -11 -42 -35 -23 -24 -41 -46
-40 -50 1 -5 -3 -8 -9 -8 -5 0 -8 -4 -5 -9 3 -5 -1 -14 -9 -21 -8 -7 -12 -16
-9 -21 3 -5 0 -9 -6 -9 -6 0 -9 -4 -5 -9 3 -5 1 -12 -5 -16 -6 -4 -8 -11 -5
-16 4 -5 3 -15 -2 -21 -4 -7 -9 -24 -10 -38 -2 -14 -5 -46 -9 -72 -4 -34 -3
-48 6 -48 7 0 10 -7 6 -15 -3 -8 -1 -15 4 -15 6 0 9 -3 8 -7 -2 -5 10 -20 25
-35 15 -15 27 -25 27 -22 0 3 13 -4 29 -15 15 -11 31 -18 35 -14 3 3 6 1 6 -6
0 -7 6 -11 14 -8 8 3 17 3 21 -1 9 -9 40 -11 175 -11 139 0 171 2 188 12 7 5
21 6 31 2 11 -3 22 -1 26 5 4 6 15 8 25 5 10 -3 21 -1 25 5 4 6 13 9 21 6 7
-3 16 -1 20 5 3 6 12 8 20 5 7 -3 16 -1 19 4 3 5 12 7 20 3 8 -3 15 0 15 7 0
7 7 10 15 6 8 -3 15 -1 15 5 0 6 7 9 15 5 8 -3 15 -1 15 5 0 6 7 9 15 5 8 -3
15 -1 15 5 0 6 7 9 15 5 8 -3 15 -1 15 5 0 6 4 8 9 4 5 -3 12 -1 16 5 4 6 11
8 16 5 5 -4 9 -1 9 5 0 6 4 9 9 6 5 -4 11 -1 13 4 2 6 13 12 26 13 12 0 22 5
22 10 0 4 5 5 10 2 6 -3 10 -1 10 5 0 6 5 8 10 5 6 -3 10 -1 10 5 0 6 4 9 9 6
5 -3 12 1 15 10 3 8 10 12 16 9 5 -3 10 -1 10 5 0 6 4 9 9 6 5 -3 12 1 15 10
4 9 9 14 13 10 3 -3 13 3 20 14 8 11 18 18 22 16 4 -3 23 10 41 29 19 19 30
35 25 35 -4 0 0 9 10 20 10 11 22 17 26 14 5 -3 9 0 9 5 0 17 28 13 48 -7 10
-10 16 -24 14 -30 -2 -7 1 -12 7 -12 14 0 14 -57 1 -65 -6 -4 -8 -15 -5 -26 4
-10 2 -19 -4 -19 -6 0 -8 -7 -5 -15 4 -8 1 -15 -6 -15 -6 0 -8 -4 -5 -10 3 -5
1 -10 -5 -10 -6 0 -8 -4 -5 -10 3 -5 1 -10 -5 -10 -6 0 -8 -4 -5 -10 3 -5 1
-10 -5 -10 -6 0 -8 -5 -5 -10 3 -6 -1 -13 -9 -16 -9 -3 -14 -10 -11 -15 3 -4
-4 -13 -15 -19 -11 -6 -19 -14 -18 -18 1 -4 -38 -47 -87 -97 -49 -49 -86 -83
-81 -75 4 8 -4 2 -18 -15 -14 -16 -26 -25 -26 -20 0 6 -5 2 -11 -8 -6 -9 -14
-15 -19 -12 -4 3 -11 -2 -14 -11 -3 -8 -10 -12 -16 -9 -5 3 -10 1 -10 -5 0 -6
-5 -8 -10 -5 -6 3 -13 -1 -16 -9 -3 -9 -10 -14 -15 -11 -4 3 -13 -4 -19 -15
-6 -11 -15 -18 -20 -15 -5 3 -14 -4 -20 -15 -6 -11 -14 -19 -19 -17 -4 1 -20
-13 -35 -30 -15 -18 -33 -32 -39 -30 -7 1 -11 -3 -10 -10 2 -6 -8 -21 -22 -31
-13 -11 -22 -22 -18 -25 3 -4 -2 -9 -11 -13 -9 -3 -13 -10 -10 -15 3 -5 0 -9
-5 -9 -6 0 -10 -3 -10 -7 1 -5 0 -12 -1 -18 -7 -35 -3 -82 8 -93 7 -8 11 -17
9 -20 -1 -4 12 -21 30 -39 18 -17 33 -29 33 -26 0 3 6 0 13 -6 8 -6 17 -8 20
-4 4 3 7 1 7 -6 0 -7 7 -11 15 -8 8 4 17 2 20 -3 3 -5 12 -7 20 -3 8 3 15 0
15 -7 0 -7 7 -10 15 -7 8 4 17 2 20 -3 3 -5 12 -7 20 -3 8 3 15 0 15 -7 0 -7
7 -10 15 -7 8 4 17 2 20 -3 3 -5 12 -7 20 -3 8 3 15 0 15 -7 0 -7 7 -10 15 -7
8 4 17 2 20 -3 3 -5 12 -7 20 -3 8 3 15 0 15 -7 0 -7 8 -9 20 -5 11 4 20 2 20
-4 0 -6 7 -8 15 -5 8 4 15 1 15 -6 0 -7 7 -10 15 -7 8 4 17 2 20 -3 3 -5 12
-7 20 -3 8 3 15 0 15 -7 0 -7 7 -10 15 -7 8 4 17 2 20 -4 4 -5 10 -7 15 -4 5
3 11 1 15 -4 3 -6 12 -8 20 -4 8 3 15 0 15 -7 0 -7 7 -10 15 -6 8 3 15 1 15
-5 0 -6 7 -9 15 -5 8 3 15 1 15 -5 0 -6 7 -9 15 -6 8 4 17 2 20 -4 4 -5 10 -7
15 -4 5 3 11 1 15 -5 4 -6 10 -8 15 -5 5 3 11 1 15 -5 4 -6 11 -8 16 -5 5 4 9
1 9 -5 0 -7 7 -10 15 -6 8 3 15 1 15 -4 0 -5 7 -7 15 -4 8 4 15 1 15 -5 0 -6
7 -8 15 -5 8 4 15 1 15 -6 0 -6 4 -9 9 -5 5 3 12 1 16 -5 4 -6 11 -8 16 -5 5
4 9 1 9 -5 0 -6 4 -9 9 -5 5 3 12 1 16 -5 4 -6 11 -8 16 -5 5 4 9 1 9 -5 0 -6
4 -9 9 -5 5 3 12 1 16 -5 4 -6 11 -8 16 -5 5 4 9 1 9 -5 0 -6 5 -8 10 -5 6 3
10 1 10 -5 0 -6 5 -8 10 -5 6 3 10 1 10 -5 0 -6 5 -8 10 -5 6 3 10 1 10 -5 0
-6 4 -8 10 -5 5 3 10 1 10 -5 0 -6 5 -8 10 -5 6 3 10 1 10 -5 0 -6 4 -8 10 -5
5 3 10 1 10 -5 0 -6 4 -9 9 -6 5 3 12 -1 15 -10 3 -8 10 -12 16 -9 5 3 10 1
10 -5 0 -6 4 -9 9 -6 5 3 12 -1 15 -10 3 -8 10 -13 15 -10 5 3 12 -1 15 -10 3
-8 10 -13 15 -10 5 3 12 -1 15 -9 3 -8 10 -14 15 -13 5 2 17 -6 26 -17 9 -11
14 -13 10 -5 -4 8 8 -1 25 -20 17 -19 29 -28 25 -20 -4 8 13 -7 37 -34 25 -27
67 -69 94 -94 27 -24 42 -41 34 -37 -8 4 -4 -3 10 -16 14 -12 24 -25 23 -30
-2 -5 6 -13 17 -19 11 -6 18 -15 15 -19 -3 -5 2 -12 11 -15 8 -3 12 -10 9 -16
-3 -5 -1 -10 5 -10 6 0 8 -5 5 -10 -3 -6 1 -13 9 -16 9 -3 13 -10 10 -15 -3
-5 0 -9 6 -9 6 0 8 -4 5 -10 -3 -6 -1 -10 5 -10 6 0 8 -4 5 -10 -3 -5 -1 -10
5 -10 6 0 8 -4 5 -10 -3 -5 -1 -10 5 -10 6 0 8 -4 5 -10 -3 -5 -1 -10 5 -10 6
0 8 -4 5 -10 -3 -6 -1 -10 5 -10 6 0 8 -4 5 -10 -3 -5 -1 -10 5 -10 7 0 10 -7
6 -15 -3 -8 -1 -15 5 -15 6 0 7 -4 4 -10 -3 -5 -1 -10 5 -10 7 0 10 -7 6 -15
-3 -8 -1 -15 5 -15 6 0 9 -7 5 -15 -3 -8 -1 -15 5 -15 6 0 9 -7 6 -15 -4 -8
-2 -17 3 -20 5 -3 7 -12 3 -20 -3 -8 0 -15 7 -15 7 0 9 -8 5 -20 -4 -12 -2
-20 5 -20 7 0 9 -8 5 -19 -3 -11 -1 -22 5 -26 6 -4 8 -15 5 -26 -4 -10 -3 -24
2 -31 10 -16 14 -64 13 -143 -1 -75 8 -127 21 -123 6 2 11 8 11 13 1 6 8 15
17 22 9 7 12 13 7 13 -6 0 -1 7 10 16 10 8 12 13 4 9 -10 -4 -9 -2 2 8 10 8
15 17 11 20 -3 4 -1 7 6 7 7 0 9 5 6 10 -3 6 1 13 9 16 9 3 13 10 10 15 -3 5
0 9 6 9 6 0 8 5 5 10 -3 6 -1 10 5 10 6 0 8 5 5 10 -3 6 -1 10 5 10 6 0 8 5 5
10 -3 6 -1 10 5 10 6 0 8 5 5 10 -3 6 -1 10 5 10 6 0 8 5 5 10 -3 6 -1 10 5
10 6 0 8 5 5 10 -3 6 -1 10 5 10 6 0 8 5 5 10 -3 6 -1 10 5 10 6 0 8 5 5 10
-3 6 -2 10 4 10 6 0 8 7 5 15 -4 8 -1 15 6 15 6 0 8 5 5 10 -3 6 -2 10 4 10 6
0 8 7 5 15 -4 8 -1 15 6 15 6 0 8 5 5 10 -3 6 -1 10 5 10 7 0 10 7 6 15 -3 8
-1 15 5 15 6 0 9 7 5 15 -3 8 -1 15 5 15 6 0 9 7 5 15 -3 8 -1 15 5 15 6 0 9
7 6 15 -4 8 -2 17 3 20 5 3 7 12 3 20 -3 8 0 15 7 15 7 0 9 8 5 20 -4 12 -2
20 5 20 7 0 9 8 5 20 -4 12 -2 20 5 20 7 0 9 8 5 19 -3 11 -1 22 5 26 7 4 9
18 6 30 -3 13 -2 27 4 30 6 3 7 17 4 30 -3 13 -2 30 3 37 10 17 12 57 12 248
0 191 -2 231 -12 248 -5 7 -6 24 -3 37 3 13 2 27 -4 30 -6 3 -7 17 -4 30 3 12
1 26 -6 30 -6 4 -8 15 -5 26 4 11 2 19 -5 19 -7 0 -9 8 -5 20 4 12 2 20 -5 20
-7 0 -9 8 -5 20 4 12 2 20 -5 20 -7 0 -10 7 -7 15 4 8 2 17 -3 20 -5 3 -7 12
-3 20 3 8 0 15 -6 15 -6 0 -8 7 -5 15 4 8 1 15 -5 15 -6 0 -8 7 -5 15 4 8 1
15 -5 15 -6 0 -8 7 -5 15 4 8 1 15 -6 15 -6 0 -8 5 -5 10 3 6 1 10 -5 10 -7 0
-10 7 -6 15 3 8 1 15 -5 15 -6 0 -7 5 -4 10 3 6 1 10 -5 10 -7 0 -10 7 -6 15
3 8 1 15 -5 15 -6 0 -7 5 -4 10 3 6 1 10 -5 10 -6 0 -8 5 -5 10 3 6 1 10 -5
10 -6 0 -8 5 -5 10 3 6 1 10 -5 10 -6 0 -8 5 -5 10 3 6 1 10 -5 10 -6 0 -8 5
-5 10 3 6 1 10 -5 10 -6 0 -8 5 -5 10 3 6 1 10 -5 10 -6 0 -8 5 -5 10 3 6 1
10 -5 10 -6 0 -8 5 -5 10 3 6 1 10 -5 10 -6 0 -9 4 -6 9 3 5 -1 12 -10 15 -8
3 -12 10 -9 16 3 5 1 10 -6 10 -7 0 -9 3 -6 7 4 3 -1 12 -11 20 -11 10 -12 12
-2 8 8 -4 6 1 -4 9 -11 9 -16 16 -10 16 5 0 0 7 -10 15 -11 8 -16 15 -10 15 5
0 -2 10 -16 21 -14 11 -18 18 -10 14 8 -4 6 1 -5 10 -11 9 -20 20 -20 26 0 5
-7 14 -15 19 -8 5 -15 13 -15 18 0 5 -13 21 -30 36 -16 15 -23 25 -15 21 8 -4
-3 10 -25 29 -22 20 -39 40 -38 44 1 5 -20 31 -48 58 -27 26 -49 44 -49 39 0
-6 -19 10 -41 35 -22 25 -38 38 -34 30 4 -8 -6 -1 -21 15 -15 17 -31 30 -36
30 -5 0 -13 7 -18 15 -5 8 -14 15 -19 15 -6 0 -17 9 -26 20 -9 11 -14 13 -10
5 4 -8 -3 -4 -14 10 -11 14 -21 21 -21 16 0 -6 -7 -1 -15 10 -8 10 -15 15 -15
10 0 -6 -7 -1 -16 10 -8 10 -13 12 -9 4 4 -8 -1 -6 -9 4 -9 11 -16 16 -16 11
0 -5 -7 0 -16 11 -8 10 -13 12 -9 4 4 -10 2 -9 -8 2 -8 10 -17 15 -20 11 -4
-3 -7 -1 -7 6 0 7 -4 9 -10 6 -5 -3 -10 -1 -10 5 0 6 -4 8 -10 5 -5 -3 -10 -1
-10 5 0 6 -4 8 -10 5 -5 -3 -10 -1 -10 5 0 6 -4 8 -10 5 -5 -3 -10 -1 -10 5 0
6 -4 8 -10 5 -5 -3 -10 -1 -10 5 0 6 -4 8 -10 5 -5 -3 -10 -1 -10 5 0 6 -4 8
-10 5 -5 -3 -10 -1 -10 5 0 6 -4 8 -10 5 -5 -3 -10 -2 -10 4 0 6 -7 8 -15 5
-8 -4 -15 -1 -15 6 0 6 -4 8 -10 5 -5 -3 -10 -2 -10 4 0 6 -7 8 -15 5 -8 -4
-15 -1 -15 6 0 6 -4 8 -10 5 -5 -3 -10 -1 -10 5 0 7 -7 10 -15 6 -8 -3 -15 -1
-15 5 0 6 -7 9 -15 5 -8 -3 -15 -1 -15 4 0 5 -7 7 -15 4 -8 -4 -15 -1 -15 6 0
7 -7 10 -15 7 -8 -4 -17 -2 -20 3 -3 5 -12 7 -20 3 -8 -3 -15 0 -15 7 0 7 -8
9 -20 5 -12 -4 -20 -2 -20 5 0 7 -8 9 -20 5 -12 -4 -20 -2 -20 5 0 7 -8 9 -19
5 -11 -3 -22 -1 -26 5 -3 5 -17 7 -30 4 -12 -3 -26 -1 -30 5 -3 6 -17 8 -30 5
-13 -3 -30 -2 -37 3 -15 9 -35 10 -241 15 -81 2 -154 0 -163 -5z m1546 -594
c0 -8 -9 0 -50 45 l-45 47 48 -45 c26 -24 47 -45 47 -47z"/>
<path d="M1040 3712 c-8 -9 -15 -20 -15 -24 0 -4 -9 -14 -20 -23 -11 -9 -13
-14 -5 -10 8 4 4 -3 -10 -14 -14 -11 -21 -21 -16 -21 6 0 1 -7 -10 -15 -10 -8
-15 -15 -10 -15 6 0 1 -7 -10 -16 -10 -8 -12 -13 -4 -9 10 4 9 2 -2 -8 -10 -8
-15 -17 -11 -20 3 -4 1 -7 -6 -7 -7 0 -9 -5 -6 -10 3 -6 -1 -13 -9 -16 -9 -3
-13 -10 -10 -15 3 -5 0 -9 -6 -9 -6 0 -8 -4 -5 -10 3 -5 1 -10 -5 -10 -6 0 -8
-4 -5 -10 3 -5 1 -10 -5 -10 -6 0 -8 -4 -5 -10 3 -5 1 -10 -5 -10 -6 0 -8 -4
-5 -10 3 -5 1 -10 -5 -10 -6 0 -8 -4 -5 -10 3 -5 1 -10 -5 -10 -6 0 -8 -4 -5
-10 3 -5 1 -10 -5 -10 -6 0 -8 -4 -5 -10 3 -5 1 -10 -5 -10 -6 0 -8 -4 -5 -10
3 -5 2 -10 -4 -10 -6 0 -8 -7 -5 -15 4 -8 1 -15 -6 -15 -6 0 -8 -4 -5 -10 3
-5 2 -10 -4 -10 -6 0 -8 -7 -5 -15 4 -8 1 -15 -6 -15 -6 0 -8 -4 -5 -10 3 -5
1 -10 -5 -10 -7 0 -10 -7 -6 -15 3 -8 1 -15 -5 -15 -6 0 -9 -7 -5 -15 3 -8 1
-15 -4 -15 -5 0 -7 -7 -4 -15 4 -8 1 -15 -6 -15 -7 0 -10 -7 -7 -15 4 -8 2
-17 -3 -20 -5 -3 -7 -12 -3 -20 3 -8 0 -15 -7 -15 -7 0 -9 -8 -5 -20 4 -12 2
-20 -5 -20 -7 0 -9 -8 -5 -20 4 -12 2 -20 -5 -20 -7 0 -9 -8 -5 -19 3 -11 1
-22 -5 -26 -5 -3 -7 -17 -4 -30 3 -12 1 -26 -5 -30 -6 -3 -8 -17 -5 -30 3 -13
2 -30 -3 -37 -10 -16 -12 -54 -12 -248 0 -194 2 -232 12 -248 5 -7 6 -24 3
-37 -3 -13 -1 -27 5 -30 6 -4 8 -18 5 -30 -3 -13 -1 -27 4 -30 6 -4 8 -15 5
-26 -4 -11 -2 -19 5 -19 7 0 9 -8 5 -20 -4 -12 -2 -20 5 -20 7 0 9 -8 5 -20
-4 -12 -2 -20 5 -20 7 0 10 -7 7 -15 -4 -8 -2 -17 3 -20 5 -3 7 -12 3 -20 -3
-8 0 -15 6 -15 6 0 8 -7 5 -15 -4 -8 -1 -15 5 -15 6 0 8 -7 5 -15 -4 -8 -1
-15 5 -15 6 0 8 -7 5 -15 -4 -8 -1 -15 6 -15 6 0 8 -4 5 -10 -3 -5 -1 -10 5
-10 7 0 10 -7 6 -15 -3 -8 -1 -15 5 -15 6 0 7 -4 4 -10 -3 -5 -1 -10 5 -10 7
0 10 -7 6 -15 -3 -8 -1 -15 5 -15 6 0 7 -4 4 -10 -3 -5 -1 -10 5 -10 6 0 8 -4
5 -10 -3 -5 -1 -10 5 -10 6 0 8 -4 5 -10 -3 -5 -1 -10 5 -10 6 0 8 -5 5 -10
-3 -6 -1 -10 5 -10 6 0 8 -5 5 -10 -3 -6 -1 -10 5 -10 6 0 8 -5 5 -10 -3 -5
-1 -10 5 -10 6 0 8 -5 5 -10 -3 -5 -1 -10 5 -10 6 0 8 -5 5 -10 -3 -6 -1 -10
5 -10 6 0 9 -4 6 -9 -3 -5 1 -12 10 -15 8 -3 12 -10 9 -16 -3 -5 -1 -10 5 -10
6 0 9 -4 6 -9 -3 -5 1 -12 10 -15 8 -3 12 -10 9 -16 -3 -5 -1 -10 5 -10 6 0 9
-4 5 -9 -3 -6 3 -14 12 -20 10 -6 14 -11 8 -11 -5 0 1 -10 15 -21 14 -11 18
-18 10 -14 -8 4 -6 -1 5 -10 11 -9 20 -20 20 -24 0 -5 11 -19 25 -31 14 -12
18 -18 10 -14 -8 3 1 -8 20 -25 19 -18 28 -29 20 -25 -8 4 -5 -4 8 -17 18 -19
24 -21 31 -10 5 7 14 10 20 6 7 -4 18 -1 26 5 8 6 19 9 24 6 5 -4 12 -2 16 3
3 6 12 8 20 4 8 -3 15 0 15 7 0 7 7 10 15 7 8 -4 17 -2 20 3 3 5 12 7 20 3 8
-3 15 0 15 7 0 7 7 10 15 6 8 -3 15 -1 15 4 0 5 7 7 15 4 8 -4 15 -1 15 5 0 6
7 8 15 5 8 -4 15 -1 15 6 0 6 5 8 10 5 6 -3 10 -1 10 5 0 7 7 10 15 6 8 -3 15
-1 15 5 0 6 4 8 9 4 5 -3 12 -1 16 5 4 6 11 8 16 5 5 -4 9 -1 9 5 0 6 5 8 10
5 6 -3 10 -1 10 5 0 6 4 9 9 5 5 -3 12 -1 16 5 4 6 11 8 16 5 5 -4 9 -1 9 5 0
6 5 8 10 5 6 -3 10 -1 10 5 0 6 5 8 10 5 6 -3 10 -1 10 5 0 6 5 8 10 5 6 -3
10 -1 10 5 0 6 5 8 10 5 6 -3 10 -1 10 5 0 6 5 8 10 5 6 -3 10 -1 10 5 0 6 4
9 9 6 5 -3 12 1 15 10 3 8 10 12 16 9 5 -3 10 -1 10 5 0 6 5 8 10 5 6 -3 10
-1 10 5 0 6 5 8 10 5 6 -3 13 1 16 9 3 9 10 14 14 11 4 -3 11 2 14 11 4 9 9
14 13 11 3 -4 12 1 20 11 10 11 12 12 8 2 -4 -8 3 -4 14 10 11 14 21 21 21 16
0 -4 9 2 21 15 11 13 17 17 14 9 -4 -8 5 -1 20 15 14 17 23 23 20 15 -4 -8 12
5 35 30 23 25 36 36 29 25 -7 -11 15 7 49 40 63 60 72 71 50 60 -7 -4 1 6 17
21 17 15 30 31 30 35 0 5 9 15 20 23 11 9 16 16 11 16 -6 0 -1 7 10 16 10 8
12 13 4 9 -10 -4 -9 -2 2 8 10 8 15 17 11 20 -3 4 -1 7 6 7 7 0 9 5 6 10 -3 6
-1 10 5 10 6 0 8 5 5 10 -3 6 -1 10 5 10 7 0 10 7 6 15 -3 8 -1 15 5 15 6 0 9
7 6 15 -4 8 -3 17 2 19 6 4 8 157 1 164 -1 1 -4 7 -5 12 -1 6 -4 13 -5 18 -1
4 -2 10 -1 15 0 4 -4 7 -10 7 -5 0 -7 4 -4 10 3 6 1 10 -6 10 -7 0 -9 3 -6 7
4 3 -1 12 -11 20 -11 10 -12 12 -2 8 8 -4 6 1 -5 10 -11 9 -20 19 -20 24 0 14
-35 42 -45 36 -5 -3 -10 -1 -10 5 0 7 -7 10 -15 6 -8 -3 -15 -1 -15 4 0 5 -7
7 -15 4 -8 -4 -15 -1 -15 5 0 6 -7 8 -15 5 -8 -4 -15 -1 -15 5 0 6 -7 8 -15 5
-8 -4 -15 -1 -15 6 0 6 -4 8 -10 5 -5 -3 -10 -1 -10 5 0 7 -7 10 -15 6 -8 -3
-15 -1 -15 5 0 6 -4 8 -9 4 -5 -3 -12 -1 -16 5 -4 6 -11 8 -16 5 -5 -4 -9 -1
-9 5 0 6 -4 9 -9 5 -5 -3 -12 -1 -16 5 -4 6 -11 8 -16 5 -5 -4 -9 -1 -9 5 0 6
-4 9 -9 5 -5 -3 -12 -1 -16 5 -4 6 -11 8 -16 5 -5 -4 -9 -1 -9 5 0 6 -4 8 -10
5 -5 -3 -10 -1 -10 5 0 6 -4 8 -10 5 -5 -3 -10 -1 -10 5 0 6 -4 8 -10 5 -5 -3
-10 -1 -10 5 0 6 -4 8 -10 5 -5 -3 -10 -1 -10 5 0 6 -4 8 -10 5 -5 -3 -10 -1
-10 5 0 6 -4 8 -10 5 -5 -3 -10 -1 -10 5 0 6 -4 8 -10 5 -5 -3 -10 -1 -10 6 0
7 -3 9 -7 6 -3 -4 -12 1 -20 11 -10 11 -12 12 -8 2 4 -10 2 -9 -8 2 -8 10 -17
15 -20 11 -4 -3 -9 2 -13 11 -3 9 -10 13 -15 10 -5 -3 -12 2 -15 10 -3 9 -10
14 -15 11 -4 -3 -13 4 -19 15 -6 11 -14 19 -19 17 -5 -1 -18 9 -30 23 -13 14
-19 19 -15 11 4 -8 -33 26 -82 75 -48 49 -89 92 -89 95 0 4 -11 17 -25 29 -14
12 -18 19 -10 15 8 -4 4 3 -10 14 -14 11 -20 21 -15 21 6 0 2 5 -8 11 -9 6
-15 14 -12 20 4 5 1 9 -5 9 -6 0 -8 5 -5 10 3 6 -1 13 -9 16 -9 3 -13 10 -10
15 3 5 0 9 -6 9 -6 0 -8 5 -5 10 3 6 1 10 -5 10 -6 0 -8 5 -5 10 3 6 1 10 -5
10 -6 0 -8 5 -5 10 3 6 1 10 -5 10 -6 0 -8 5 -5 10 3 6 2 10 -4 10 -6 0 -8 7
-5 15 4 8 1 15 -6 15 -6 0 -8 5 -5 10 3 6 1 10 -5 10 -7 0 -10 7 -6 15 3 8 1
15 -4 15 -5 0 -7 7 -4 15 4 8 1 15 -5 15 -6 0 -8 7 -5 15 4 8 1 15 -6 15 -7 0
-10 7 -7 15 4 8 2 17 -3 20 -5 3 -7 12 -3 20 3 8 0 15 -6 15 -7 0 -9 9 -5 25
4 16 2 25 -5 25 -7 0 -9 9 -5 24 3 13 1 27 -6 31 -7 4 -9 18 -5 35 4 16 2 31
-5 35 -7 5 -9 29 -4 76 4 38 5 69 3 69 -2 -1 -11 -8 -19 -18z"/>
<path d="M5106 2259 c-14 -168 -83 -450 -156 -636 -84 -212 -223 -455 -368
-643 -91 -117 -287 -316 -407 -413 -374 -302 -823 -493 -1295 -552 -91 -11 55
-13 1068 -14 l1172 -1 0 1170 c0 644 -2 1170 -4 1170 -2 0 -6 -36 -10 -81z"/>
<path d="M2894 2149 c5 -46 3 -69 -4 -74 -7 -4 -9 -18 -6 -30 3 -13 1 -27 -4
-30 -6 -4 -8 -15 -5 -25 3 -10 1 -21 -4 -24 -6 -4 -8 -13 -4 -21 3 -8 0 -15
-7 -15 -7 0 -9 -8 -5 -20 4 -12 2 -20 -5 -20 -6 0 -9 -4 -5 -9 3 -5 1 -12 -5
-16 -6 -4 -8 -11 -5 -16 4 -5 1 -9 -5 -9 -7 0 -10 -7 -6 -15 3 -8 1 -15 -5
-15 -6 0 -7 -4 -4 -10 3 -5 1 -10 -5 -10 -6 0 -8 -4 -5 -10 3 -5 1 -10 -4 -10
-6 0 -10 -3 -9 -7 4 -15 -13 -53 -23 -53 -6 0 -7 -4 -4 -10 3 -5 1 -10 -5 -10
-6 0 -8 -4 -5 -10 3 -5 1 -10 -5 -10 -6 0 -8 -5 -5 -10 3 -6 -1 -13 -9 -16 -9
-3 -13 -10 -10 -15 3 -5 -2 -12 -10 -15 -9 -3 -13 -10 -10 -15 3 -5 10 -7 15
-3 5 3 16 1 23 -5 7 -6 20 -9 29 -5 8 3 18 1 21 -5 4 -6 13 -8 21 -4 9 3 22 0
30 -7 8 -6 19 -9 25 -5 6 4 17 1 25 -5 8 -6 19 -9 25 -5 6 4 17 1 25 -5 8 -6
23 -9 34 -5 10 3 22 1 26 -5 4 -7 19 -9 35 -5 16 4 31 2 35 -5 4 -7 19 -9 36
-5 16 4 34 3 41 -2 15 -9 93 -14 213 -14 154 1 175 2 175 13 0 6 10 8 24 4 20
-5 25 -1 29 22 3 15 1 32 -4 38 -5 6 -7 18 -3 27 3 8 1 18 -5 21 -6 4 -8 13
-4 21 3 8 0 15 -7 15 -7 0 -10 7 -6 15 3 8 1 15 -4 15 -5 0 -7 7 -4 15 4 8 1
15 -6 15 -6 0 -8 5 -5 10 3 6 1 10 -5 10 -6 0 -8 5 -5 10 3 6 1 10 -5 10 -6 0
-8 5 -5 10 3 6 1 10 -5 10 -6 0 -8 5 -5 10 3 6 1 10 -5 10 -6 0 -8 5 -5 10 3
6 -1 13 -9 16 -9 3 -14 10 -11 15 3 4 -4 13 -15 19 -11 6 -19 14 -18 18 2 4
-22 32 -51 62 -30 30 -51 48 -47 40 4 -8 -2 -4 -15 10 -12 14 -26 24 -31 22
-5 -1 -11 5 -14 13 -3 8 -10 12 -15 9 -5 -3 -12 2 -15 10 -3 9 -10 13 -15 10
-5 -3 -9 0 -9 6 0 6 -5 8 -10 5 -6 -3 -13 1 -16 9 -3 9 -10 13 -15 10 -5 -3
-9 0 -9 6 0 6 -4 8 -10 5 -5 -3 -10 -1 -10 5 0 6 -4 8 -10 5 -5 -3 -10 -1 -10
5 0 6 -4 8 -10 5 -5 -3 -10 -1 -10 5 0 6 -4 9 -9 5 -5 -3 -12 -1 -16 5 -4 6
-11 8 -16 5 -5 -4 -9 -1 -9 5 0 6 -4 8 -10 5 -5 -3 -10 -2 -10 4 0 6 -7 8 -15
5 -8 -4 -15 -1 -15 6 0 6 -4 9 -9 5 -5 -3 -12 -1 -16 5 -4 6 -11 8 -16 5 -5
-4 -9 -1 -9 5 0 7 -7 10 -15 6 -8 -3 -15 -1 -15 4 0 5 -7 7 -15 4 -8 -4 -15
-2 -15 3 0 5 -7 10 -16 10 -14 0 -15 -10 -10 -68z"/>
<path d="M2392 1253 c-8 -11 -10 -12 -7 -3 4 8 -8 -1 -25 -20 -17 -19 -29 -28
-25 -20 4 8 -3 4 -15 -10 -12 -14 -26 -25 -31 -25 -4 0 -15 -9 -24 -20 -9 -11
-14 -13 -10 -5 4 8 -1 6 -10 -5 -9 -11 -21 -19 -26 -17 -5 1 -12 -5 -15 -13
-3 -8 -10 -12 -15 -9 -5 3 -12 -2 -15 -10 -3 -9 -10 -14 -14 -11 -4 3 -11 -2
-14 -11 -3 -8 -10 -12 -16 -9 -5 3 -10 1 -10 -5 0 -6 -5 -8 -10 -5 -6 3 -13
-1 -16 -9 -3 -9 -10 -13 -15 -10 -5 3 -9 0 -9 -6 0 -6 -4 -9 -9 -6 -5 3 -12
-1 -15 -10 -3 -8 -10 -12 -16 -9 -5 3 -10 1 -10 -5 0 -6 -4 -8 -10 -5 -5 3
-10 1 -10 -5 0 -6 -4 -8 -10 -5 -5 3 -10 1 -10 -5 0 -6 -4 -8 -10 -5 -5 3 -10
1 -10 -5 0 -6 -4 -8 -10 -5 -5 3 -10 1 -10 -5 0 -6 -4 -8 -10 -5 -5 3 -10 1
-10 -5 0 -6 -4 -8 -10 -5 -5 3 -10 1 -10 -5 0 -6 -4 -8 -10 -5 -5 3 -10 1 -10
-5 0 -6 -4 -8 -10 -5 -5 3 -10 1 -10 -5 0 -6 -4 -8 -10 -5 -5 3 -10 1 -10 -5
0 -6 -4 -8 -10 -5 -5 3 -10 1 -10 -5 0 -6 -4 -8 -10 -5 -5 3 -10 2 -10 -4 0
-6 -7 -8 -15 -5 -8 4 -15 1 -15 -6 0 -6 -4 -8 -10 -5 -5 3 -10 1 -10 -5 0 -6
-4 -8 -10 -5 -5 3 -10 1 -10 -5 0 -6 -5 -8 -12 -4 -7 4 -8 3 -4 -5 4 -6 12 -9
17 -6 5 4 9 1 9 -5 0 -6 5 -8 10 -5 6 3 10 1 10 -5 0 -6 5 -8 10 -5 6 3 10 1
10 -5 0 -6 5 -8 10 -5 6 3 10 2 10 -4 0 -6 7 -8 15 -5 8 4 15 1 15 -6 0 -6 5
-8 10 -5 6 3 10 2 10 -4 0 -6 7 -8 15 -5 8 4 15 1 15 -6 0 -6 5 -8 10 -5 6 3
10 1 10 -5 0 -7 7 -10 15 -6 8 3 15 1 15 -5 0 -6 7 -9 15 -5 8 3 15 1 15 -5 0
-6 7 -9 15 -5 8 3 15 1 15 -5 0 -6 7 -9 15 -6 8 4 17 2 20 -3 3 -5 12 -7 20
-3 8 3 15 0 15 -7 0 -7 8 -9 20 -5 12 4 20 2 20 -5 0 -7 8 -9 20 -5 12 4 20 2
20 -5 0 -7 8 -9 19 -5 11 3 22 1 26 -5 4 -7 18 -9 30 -6 13 3 27 2 30 -4 3 -6
17 -7 30 -4 13 3 30 2 37 -3 17 -10 57 -12 248 -12 191 0 231 2 248 12 7 5 24
6 37 3 13 -3 27 -1 30 5 4 6 18 8 30 5 13 -3 27 -1 30 4 4 6 15 8 26 5 11 -4
19 -2 19 5 0 7 8 9 20 5 12 -4 20 -2 20 5 0 7 8 9 20 5 12 -4 20 -2 20 5 0 7
7 10 15 7 8 -4 17 -2 20 3 3 5 12 7 20 3 8 -3 15 0 15 6 0 6 7 8 15 5 8 -4 15
-1 15 5 0 6 7 8 15 5 8 -4 15 -1 15 5 0 6 7 8 15 5 8 -4 15 -1 15 6 0 6 5 8
10 5 6 -3 10 -1 10 5 0 7 7 10 15 6 8 -3 15 -1 15 5 0 6 5 7 10 4 6 -3 10 -1
10 4 0 6 4 11 10 11 10 0 143 131 144 142 1 4 10 14 21 23 11 9 13 14 5 10
-10 -4 -9 -2 2 8 10 8 15 17 11 20 -3 4 -1 7 6 7 7 0 9 5 6 10 -3 6 1 13 9 16
9 3 13 10 10 15 -3 5 0 9 6 9 6 0 8 5 5 10 -3 6 -1 10 6 10 10 0 11 2 0 13 -8
8 -61 12 -184 13 -95 1 -176 3 -182 4 -9 3 -34 5 -125 12 -19 2 -40 7 -47 11
-7 4 -24 5 -38 1 -16 -4 -25 -2 -25 6 0 8 -10 9 -30 5 -20 -4 -30 -3 -30 5 0
8 -9 10 -24 6 -14 -3 -28 -1 -31 4 -4 6 -15 8 -25 5 -10 -3 -21 -1 -25 5 -4 6
-15 8 -25 5 -10 -3 -21 -1 -25 5 -3 6 -11 8 -16 4 -5 -3 -16 -1 -23 5 -7 6
-20 9 -29 5 -8 -3 -18 -1 -21 5 -4 6 -13 8 -20 5 -8 -3 -17 -1 -20 5 -4 6 -13
8 -20 5 -8 -3 -17 0 -21 5 -3 6 -11 9 -16 5 -5 -3 -16 0 -24 6 -8 6 -19 9 -24
6 -5 -4 -12 -2 -16 3 -3 6 -12 8 -20 4 -8 -3 -15 0 -15 6 0 17 -24 13 -38 -6z"/>
<path d="M3379 873 l-24 -28 28 24 c25 23 32 31 24 31 -2 0 -14 -12 -28 -27z"/>
</g>
</svg>
